<?xml version="1.0" encoding="UTF-8"?>
<svg version="1.1" xmlns="http://www.w3.org/2000/svg" width="254" height="247">
<path d="M0 0 C83.82 0 167.64 0 254 0 C254 81.51 254 163.02 254 247 C170.18 247 86.36 247 0 247 C0 165.49 0 83.98 0 0 Z " fill="#202020" transform="translate(0,0)"/>
<path d="M0 0 C83.82 0 167.64 0 254 0 C254 81.51 254 163.02 254 247 C170.18 247 86.36 247 0 247 C0 165.49 0 83.98 0 0 Z M102 4 C100.84757812 4.29801514 100.84757812 4.29801514 99.671875 4.60205078 C81.43613301 9.38678261 65.90812809 16.46240522 51 28 C50.09636719 28.66902344 49.19273438 29.33804687 48.26171875 30.02734375 C26.52294638 46.55962943 13.40384207 70.87124355 7 97 C6.65001953 98.42119141 6.65001953 98.42119141 6.29296875 99.87109375 C-0.16763606 130.4079093 6.56123791 163.84554473 23.484375 189.9453125 C28.38177076 197.1442843 33.9912978 203.70679485 40 210 C40.53625 210.59941406 41.0725 211.19882813 41.625 211.81640625 C60.01981995 231.63682474 90.41568661 244.1883906 117.1328125 245.34765625 C151.60371061 246.14783593 183.44747713 235.67179778 208.9296875 211.9921875 C210.51138181 210.47017977 212.07286205 208.92713795 213.625 207.375 C216 205 216 205 217.7578125 203.6015625 C233.65095226 190.82472466 242.6007068 169.12699615 248 150 C248.3403125 148.86175781 248.680625 147.72351563 249.03125 146.55078125 C253.383961 129.20039156 252.96692 108.1584509 248 91 C247.73316406 89.95070313 247.46632812 88.90140625 247.19140625 87.8203125 C243.16805745 73.19320441 236.16964068 60.01754956 227 48 C226.24460938 47.01 225.48921875 46.02 224.7109375 45 C220.2461966 39.35386718 215.60093292 34.5060137 210 30 C209.25234375 29.36578125 208.5046875 28.7315625 207.734375 28.078125 C193.79758999 16.47912328 177.61807944 8.34306144 160 4 C159.01386719 3.72285156 158.02773437 3.44570313 157.01171875 3.16015625 C139.48691503 -1.14661884 119.39205274 -0.70752789 102 4 Z " fill="#1E1E1E" transform="translate(0,0)"/>
<path d="M0 0 C0.60038086 0.27215332 1.20076172 0.54430664 1.81933594 0.82470703 C16.59841539 7.57510878 28.83803848 17.25056683 40 29 C40.58007812 29.59683594 41.16015625 30.19367187 41.7578125 30.80859375 C54.6264861 44.56041162 63.32909702 61.83537729 68 80 C68.2990625 81.1240625 68.598125 82.248125 68.90625 83.40625 C71.45558358 94.26452267 71.31258285 104.90571348 71 116 C70.67 116 70.34 116 70 116 C69.93006836 115.23034912 69.86013672 114.46069824 69.78808594 113.66772461 C67.01487188 83.85121493 61.04286812 57.10869881 41 34 C40.33613281 33.19175781 39.67226562 32.38351563 38.98828125 31.55078125 C24.94908426 15.02034043 6.30006233 4.82540057 -14 -2 C-14.87914062 -2.31710938 -15.75828125 -2.63421875 -16.6640625 -2.9609375 C-24.21680439 -5.51219814 -32.11067083 -6.16799878 -40 -7 C-39.06542969 -6.86464844 -38.13085938 -6.72929688 -37.16796875 -6.58984375 C-21.33810577 -4.08060511 -5.50832524 1.20334147 8 10 C8.33 10.66 8.66 11.32 9 12 C5.62149419 10.68111805 2.34032452 9.23802716 -0.9375 7.6875 C-27.31644854 -4.2199082 -55.97150104 -6.82060758 -84 1 C-85.62035156 1.433125 -85.62035156 1.433125 -87.2734375 1.875 C-118.49120074 11.24869834 -139.8371217 32.12688538 -155.5703125 59.7578125 C-157 62 -157 62 -158.53515625 63.46484375 C-169.7670208 75.2358378 -170.41587168 102.53007274 -170.20703125 117.67578125 C-169.39843581 145.20275103 -157.97973367 171.39907509 -140 192 C-138.95972656 193.21042969 -138.95972656 193.21042969 -137.8984375 194.4453125 C-127.19927006 205.97067047 -111.94929555 216.01690148 -97 221 C-97 220.34 -97 219.68 -97 219 C-97.66 218.67 -98.32 218.34 -99 218 C-94.82607452 218.71146457 -90.99326394 219.97904968 -87 221.375 C-80.09810406 223.74423077 -73.14899419 225.51715635 -66 227 C-66.33 227.66 -66.66 228.32 -67 229 C-66.01 228.67 -65.02 228.34 -64 228 C-61.73499724 227.88310364 -59.46700698 227.82129262 -57.19921875 227.7890625 C-55.81444249 227.76093564 -54.42967706 227.73227101 -53.04492188 227.703125 C-50.88436894 227.66236443 -48.72400548 227.62545312 -46.56323242 227.59863281 C-33.535089 227.42329175 -21.25561762 225.77238907 -9.0625 220.875 C-8.3094458 220.5749707 -7.5563916 220.27494141 -6.78051758 219.96582031 C20.20585756 208.82020027 42.42241967 186.75655609 53.73046875 159.83862305 C63.6836016 135.13910647 66.01816034 109.86478857 59.77734375 83.921875 C59.07311306 80.3688719 58.988372 79.2361291 60 76 C64.11831665 89.33454955 66.16372713 101.58116035 66.25 115.5625 C66.2593457 116.60317627 66.26869141 117.64385254 66.27832031 118.71606445 C66.23405961 129.52503858 64.56974813 139.53266046 60.875 149.6875 C60.41649658 150.96270508 60.41649658 150.96270508 59.94873047 152.26367188 C54.93469946 165.90183623 49.21495287 177.69832773 40 189 C38.81176091 190.60361928 37.6242079 192.20774727 36.4375 193.8125 C33.02725847 198.13523247 29.32244856 201.60085928 25 205 C24.484375 205.41008301 23.96875 205.82016602 23.4375 206.24267578 C14.20886611 213.51809029 4.74343673 219.24696218 -6 224 C-7.63388672 224.72316406 -7.63388672 224.72316406 -9.30078125 225.4609375 C-38.22316199 237.34684739 -71.24190738 237.53621163 -100.15234375 225.6953125 C-115.28355077 219.18139517 -128.00149848 210.29514108 -140 199 C-140.60328125 198.46117187 -141.2065625 197.92234375 -141.828125 197.3671875 C-163.06808527 177.61600949 -174.42020227 146.04362977 -175.92553711 117.68286133 C-176.62736388 96.08651036 -171.62775299 75.26084287 -162 56 C-161.48953125 54.97777344 -160.9790625 53.95554688 -160.453125 52.90234375 C-145.5456575 25.48588743 -119.14357476 5.43572453 -89.5859375 -3.68359375 C-59.5154978 -12.52973294 -28.84350613 -13.33452556 0 0 Z " fill="#B09153" transform="translate(180,11)"/>
<path d="M0 0 C5.48358436 0.09072106 9.84402797 2.76604064 14.5 5.4375 C13.84 5.7675 13.18 6.0975 12.5 6.4375 C11.84 6.128125 11.18 5.81875 10.5 5.5 C6.18044339 3.97015704 2.03818885 4.27888369 -2.5 4.4375 C-2.83 5.4275 -3.16 6.4175 -3.5 7.4375 C-2.51 7.1075 -1.52 6.7775 -0.5 6.4375 C1.06118428 6.37009135 2.6250252 6.35235544 4.1875 6.375 C5.39986328 6.38853516 5.39986328 6.38853516 6.63671875 6.40234375 C7.55904297 6.41974609 7.55904297 6.41974609 8.5 6.4375 C8.5 6.7675 8.5 7.0975 8.5 7.4375 C4.87 7.7675 1.24 8.0975 -2.5 8.4375 C0.12500276 12.49432244 2.21596777 15.45637279 6.3125 18.0625 C9.5 20.4375 9.5 20.4375 9.9375 23.25 C9.793125 23.971875 9.64875 24.69375 9.5 25.4375 C7.85 25.7675 6.2 26.0975 4.5 26.4375 C4.83 27.4275 5.16 28.4175 5.5 29.4375 C7.66874252 28.93146008 9.49967627 28.43766187 11.5 27.4375 C11.79903012 24.33364303 11.9154923 21.27530925 11.97851562 18.16015625 C12.15627224 13.74658959 12.91232399 11.01438886 15.5 7.4375 C16.11875 6.509375 16.11875 6.509375 16.75 5.5625 C18.5 4.4375 18.5 4.4375 21.9375 4.25 C26.12715517 5.64655172 26.12715517 5.64655172 27.9375 8.75 C30.24106278 14.13151475 29.84441672 19.69722138 29.5 25.4375 C31.975 26.4275 31.975 26.4275 34.5 27.4375 C34.92979175 31.73541754 34.86028389 33.87455642 32.5 37.5625 C30.34790563 39.89958815 28.07486825 41.3302877 25.3125 42.875 C21.9037046 44.8374467 21.60200965 45.13657154 20.25 49.125 C20.0025 50.218125 19.755 51.31125 19.5 52.4375 C15.86535238 54.92731368 12.94345354 54.55775196 8.75 53.9921875 C5.47645037 53.18516658 3.15563637 51.460842 0.5 49.4375 C-0.985 48.9425 -0.985 48.9425 -2.5 48.4375 C-3.49 49.0975 -4.48 49.7575 -5.5 50.4375 C-8.4375 50.5625 -8.4375 50.5625 -11.5 49.4375 C-16.04198007 44.33992604 -15.8654083 38.26785386 -15.640625 31.78125 C-15.59421875 31.0078125 -15.5478125 30.234375 -15.5 29.4375 C-16.139375 29.128125 -16.77875 28.81875 -17.4375 28.5 C-19.5 27.4375 -19.5 27.4375 -20.5 26.4375 C-21.00533733 23.40547602 -21.02203103 21.30257999 -19.40625 18.625 C-16.82541796 15.44014344 -14.43670743 13.24607346 -10.75 11.4375 C-7.16929331 9.69876415 -7.16929331 9.69876415 -6.1875 5.8125 C-5.960625 4.69875 -5.73375 3.585 -5.5 2.4375 C-3.5 0.4375 -3.5 0.4375 0 0 Z " fill="#92713D" transform="translate(121.5,75.5625)"/>
<path d="M0 0 C7.24579719 -0.67090715 11.75838097 1.41874318 18 5 C17.01 5.495 17.01 5.495 16 6 C15.34 5.690625 14.68 5.38125 14 5.0625 C9.68044339 3.53265704 5.53818885 3.84138369 1 4 C0.67 4.99 0.34 5.98 0 7 C0.99 6.67 1.98 6.34 3 6 C4.56118428 5.93259135 6.1250252 5.91485544 7.6875 5.9375 C8.89986328 5.95103516 8.89986328 5.95103516 10.13671875 5.96484375 C11.05904297 5.98224609 11.05904297 5.98224609 12 6 C12 6.33 12 6.66 12 7 C8.37 7.33 4.74 7.66 1 8 C3.62500276 12.05682244 5.71596777 15.01887279 9.8125 17.625 C13 20 13 20 13.4375 22.8125 C13.293125 23.534375 13.14875 24.25625 13 25 C11.35 25.33 9.7 25.66 8 26 C8.33 26.99 8.66 27.98 9 29 C11.16874252 28.49396008 12.99967627 28.00016187 15 27 C15.29903012 23.89614303 15.4154923 20.83780925 15.47851562 17.72265625 C15.69521906 12.34206863 17.19566961 9.37843552 20.375 5.1875 C22.61598396 3.54985788 24.29608652 3.78076377 27 4 C27.66 5.65 28.32 7.3 29 9 C27.02 8.67 25.04 8.34 23 8 C20.0554321 12.99296295 19.36504064 17.33557626 19 23 C21.64 23.66 24.28 24.32 27 25 C27 25.99 27 26.98 27 28 C24.36 28.99 21.72 29.98 19 31 C19.56739868 35.12973628 19.56739868 35.12973628 21 39 C24.37462715 38.45276317 26.08235 37.9451 29 36 C28.44295272 39.23087421 27.66812465 41.02361137 25 43 C23.68 43 22.36 43 21 43 C21.33 43.99 21.66 44.98 22 46 C18.78817851 47.90608098 16.46117397 48.22266247 12.75 48.125 C11.41195312 48.09792969 11.41195312 48.09792969 10.046875 48.0703125 C9.37140625 48.04710937 8.6959375 48.02390625 8 48 C8 47.67 8 47.34 8 47 C11.3 46.34 14.6 45.68 18 45 C18 41.7823463 16.1004084 40.32747958 14 38 C12.35394174 36.96642853 10.69036558 35.95939668 9 35 C8.67 34.34 8.34 33.68 8 33 C5.97536745 32.34786708 5.97536745 32.34786708 4 32 C4 31.34 4 30.68 4 30 C1.69 29.67 -0.62 29.34 -3 29 C-3 27.68 -3 26.36 -3 25 C-1.02 24.34 0.96 23.68 3 23 C2.34 20.69 1.68 18.38 1 16 C-1.3015411 15.22197813 -1.3015411 15.22197813 -4 15 C-6.30504044 16.33153266 -6.30504044 16.33153266 -8 18 C-7.44225728 14.76509224 -6.62788492 13.02144994 -4 11 C-3.01 11 -2.02 11 -1 11 C-1.020625 9.741875 -1.04125 8.48375 -1.0625 7.1875 C-1.10886083 4.35948913 -0.91692961 2.75078884 0 0 Z " fill="#A78C51" transform="translate(118,76)"/>
<path d="M0 0 C1.62524494 3.25048987 1.0457479 6.62728987 0 10 C-2.5625 11.875 -2.5625 11.875 -5 13 C-5 13.66 -5 14.32 -5 15 C-4.34 14.34 -3.68 13.68 -3 13 C-0.5 13.1875 -0.5 13.1875 2 14 C4.1519437 17.22791555 4.20086443 18.28400809 4 22 C2.02 22.66 0.04 23.32 -2 24 C-2 25.32 -2 26.64 -2 28 C-1.195625 28.144375 -0.39125 28.28875 0.4375 28.4375 C3 29 3 29 4 30 C4.06803348 36.34072017 2.4535669 40.76394696 -1 46 C-1.763125 45.835 -2.52625 45.67 -3.3125 45.5 C-6.03596236 44.90854604 -6.03596236 44.90854604 -9 45 C-10.85131483 41.07142246 -11.22004943 38.01224888 -11.125 33.6875 C-11.10695313 32.61886719 -11.08890625 31.55023438 -11.0703125 30.44921875 C-11.04710938 29.64097656 -11.02390625 28.83273438 -11 28 C-11.639375 27.690625 -12.27875 27.38125 -12.9375 27.0625 C-15 26 -15 26 -16 25 C-16.50533733 21.96797602 -16.52203103 19.86507999 -14.90625 17.1875 C-12.32541796 14.00264344 -9.93670743 11.80857346 -6.25 10 C-2.66359308 8.25216701 -2.66359308 8.25216701 -1.625 4.3125 C-1.41875 3.219375 -1.2125 2.12625 -1 1 C-0.67 0.67 -0.34 0.34 0 0 Z " fill="#8B6938" transform="translate(117,77)"/>
<path d="M0 0 C0.33 0 0.66 0 1 0 C1.06469482 0.74870361 1.12938965 1.49740723 1.19604492 2.26879883 C4.51063802 39.42353807 14.71098748 72.20236306 43.9375 97.375 C52.88229148 104.49575557 62.66781841 110.14877253 73 115 C73 115.66 73 116.32 73 117 C54.1820923 114.56570671 34.27734344 95.11154399 23 81 C8.46083932 60.7971865 -0.47351678 37.91459028 -0.125 12.875 C-0.11597656 11.63234375 -0.10695313 10.3896875 -0.09765625 9.109375 C-0.07429729 6.07270996 -0.04154283 3.03646147 0 0 Z " fill="#1F1C18" transform="translate(10,115)"/>
<path d="M0 0 C9.21375921 -0.49140049 9.21375921 -0.49140049 13 1.875 C13.66 2.57625 14.32 3.2775 15 4 C15.66 4.66 16.32 5.32 17 6 C17.99 5.34 18.98 4.68 20 4 C22.4375 3.5625 22.4375 3.5625 25 4 C27.77971464 6.77971464 29 8.01144966 29 12 C24.545 12.495 24.545 12.495 20 13 C23.70152678 13.92538169 24.63458162 14.08174162 28 13 C27.34 14.32 26.68 15.64 26 17 C19.6 17.49230769 19.6 17.49230769 16.5625 15 C16.046875 14.34 15.53125 13.68 15 13 C14.071875 13.99 14.071875 13.99 13.125 15 C8.60432896 17.89322946 5.30817603 17.28310272 0 17 C0 11.39 0 5.78 0 0 Z " fill="#B99A58" transform="translate(165,151)"/>
<path d="M0 0 C0.66 0 1.32 0 2 0 C2 0.66 2 1.32 2 2 C3.65 2 5.3 2 7 2 C7 2.99 7 3.98 7 5 C7.70125 5.185625 8.4025 5.37125 9.125 5.5625 C13.09640051 7.54820026 15.3073418 10.53933276 18 14 C15.53264116 16.46735884 13.27828479 16.9072384 10 18 C9.34 18.66 8.68 19.32 8 20 C11.63 20 15.26 20 19 20 C19 20.99 19 21.98 19 23 C13.30397263 24.27870002 10.13828962 23.76677133 5 21 C4.1646875 20.13375 4.1646875 20.13375 3.3125 19.25 C2.879375 18.8375 2.44625 18.425 2 18 C0.09415804 18.20376178 0.09415804 18.20376178 -2 19 C-5.0625 19.75 -5.0625 19.75 -8 20 C-9.875 18.5625 -9.875 18.5625 -11 17 C-10.505 15.515 -10.505 15.515 -10 14 C-9.34 14.66 -8.68 15.32 -8 16 C-6.68 16 -5.36 16 -4 16 C-0.82307843 10.75117306 -0.34302035 5.98511371 0 0 Z " fill="#946E37" transform="translate(120,106)"/>
<path d="M0 0 C0.7115625 -0.7734375 0.7115625 -0.7734375 1.4375 -1.5625 C5.30997616 -3.73486467 8.75229924 -2.75333154 13 -2 C13.08097324 0.27024968 13.13917704 2.54132075 13.1875 4.8125 C13.23970703 6.70935547 13.23970703 6.70935547 13.29296875 8.64453125 C13 12 13 12 11.7109375 13.92578125 C8.83006767 15.73454656 6.28583639 15.35845488 3 15 C2.34 14.01 1.68 13.02 1 12 C3.31 12 5.62 12 8 12 C8.33 11.01 8.66 10.02 9 9 C7.88625 9.3403125 7.88625 9.3403125 6.75 9.6875 C4 10 4 10 1.6875 8.5625 C0.8521875 7.7890625 0.8521875 7.7890625 0 7 C-0.33 7.99 -0.66 8.98 -1 10 C-2.32 10 -3.64 10 -5 10 C-5.33 7.03 -5.66 4.06 -6 1 C-6.99 0.67 -7.98 0.34 -9 0 C-9.33 3.3 -9.66 6.6 -10 10 C-10.99 10 -11.98 10 -13 10 C-13 6.04 -13 2.08 -13 -2 C-7.27244844 -3.14551031 -4.81458225 -3.2097215 0 0 Z " fill="#C8B26E" transform="translate(97,158)"/>
<path d="M0 0 C6.97669157 -0.39325819 12.51656189 0.36903961 19 3 C18.51402344 3.83144531 18.02804688 4.66289063 17.52734375 5.51953125 C15.32469297 10.538871 15.58426629 15.22045178 15.50390625 20.63671875 C15 24 15 24 13.10546875 25.9765625 C11 27 11 27 8.75 26.6875 C8.1725 26.460625 7.595 26.23375 7 26 C7 24.68 7 23.36 7 22 C8.32 21.67 9.64 21.34 11 21 C11 19.68 11 18.36 11 17 C9.35627132 15.34781093 9.35627132 15.34781093 7.1875 14 C4.14465708 11.96035302 1.98631495 10.10792497 0 7 C0 6.34 0 5.68 0 5 C1.65 4.67 3.3 4.34 5 4 C3.02 4 1.04 4 -1 4 C-0.67 2.68 -0.34 1.36 0 0 Z " fill="#252423" transform="translate(119,79)"/>
<path d="M0 0 C26.07067943 15.03682889 46.00303144 40.76076685 54.15625 69.71875 C54.4346875 70.8015625 54.713125 71.884375 55 73 C55.2990625 74.1240625 55.598125 75.248125 55.90625 76.40625 C58.45558358 87.26452267 58.31258285 97.90571348 58 109 C57.67 109 57.34 109 57 109 C56.93006836 108.23034912 56.86013672 107.46069824 56.78808594 106.66772461 C54.01487188 76.85121493 48.04286812 50.10869881 28 27 C27.33613281 26.19175781 26.67226562 25.38351563 25.98828125 24.55078125 C18.13028594 15.29839121 8.63010246 7.81545045 -2 2 C-1.34 1.34 -0.68 0.68 0 0 Z " fill="#674A28" transform="translate(193,18)"/>
<path d="M0 0 C2.39269355 3.58904033 3.13187655 7.10996411 4.0625 11.25 C4.32256836 12.35794922 4.32256836 12.35794922 4.58789062 13.48828125 C6.57314535 22.11387073 7.18222289 30.34834549 7.1875 39.1875 C7.19974609 40.24775391 7.21199219 41.30800781 7.22460938 42.40039062 C7.2446167 53.34439708 5.61377492 63.40534237 1.875 73.6875 C1.57223145 74.53401123 1.26946289 75.38052246 0.95751953 76.25268555 C-1.16582282 82.05046047 -3.52230407 87.71402506 -6.125 93.3125 C-6.59317139 94.32413208 -6.59317139 94.32413208 -7.07080078 95.35620117 C-9.28506999 99.95147326 -11.77428818 104.03569061 -15 108 C-17.15673828 108.69262695 -17.15673828 108.69262695 -19 109 C-17.36410394 105.51120127 -15.33324726 102.36291531 -13.25 99.125 C3.20547164 72.83218089 8.35051378 40.37110375 1.42358398 10.24291992 C1.08157973 8.7959086 0.73093498 7.35087883 0.3671875 5.90917969 C0 4 0 4 0 0 Z " fill="#946E37" transform="translate(239,87)"/>
<path d="M0 0 C8.96103896 -0.47792208 8.96103896 -0.47792208 13.125 1.4375 C15.50959885 4.69645176 15.73080388 6.89442605 15.46875 10.87109375 C15 13 15 13 13.125 15.5625 C8.58931752 17.64891394 4.96837129 17.2649798 0 17 C0 11.39 0 5.78 0 0 Z " fill="#E2D58A" transform="translate(112,151)"/>
<path d="M0 0 C3.5577019 5.33655285 2.08300141 11.62232562 0.8840332 17.64501953 C-3.57577281 38.27777196 -12.52459644 66.57032347 -31 79 C-29.38482553 75.42111341 -27.19568998 72.47009386 -24.875 69.3125 C-18.45903143 60.2992804 -13.39558761 50.12058611 -10.25 39.5 C-9.63125 37.7675 -9.63125 37.7675 -9 36 C-6.921875 35.28125 -6.921875 35.28125 -5 35 C-2.57797152 23.35365029 -0.72852022 11.88638259 0 0 Z " fill="#493A28" transform="translate(249,124)"/>
<path d="M0 0 C1.32 0.66 2.64 1.32 4 2 C4.42979175 6.29791754 4.36028389 8.43705642 2 12.125 C-0.15209437 14.46208815 -2.42513175 15.8927877 -5.1875 17.4375 C-8.61387835 19.4110425 -8.91335459 19.76369433 -10.375 23.75 C-10.58125 24.8225 -10.7875 25.895 -11 27 C-11.66 27.33 -12.32 27.66 -13 28 C-13.33 27.34 -13.66 26.68 -14 26 C-15.04800781 26.03480469 -15.04800781 26.03480469 -16.1171875 26.0703125 C-17.02726563 26.08835937 -17.93734375 26.10640625 -18.875 26.125 C-19.77992188 26.14820312 -20.68484375 26.17140625 -21.6171875 26.1953125 C-24 26 -24 26 -26 24 C-25.14535156 23.81824219 -24.29070312 23.63648437 -23.41015625 23.44921875 C-22.30542969 23.19785156 -21.20070312 22.94648437 -20.0625 22.6875 C-18.96035156 22.44386719 -17.85820312 22.20023438 -16.72265625 21.94921875 C-15.82417969 21.63597656 -14.92570313 21.32273437 -14 21 C-13.67 20.01 -13.34 19.02 -13 18 C-11.824375 17.5359375 -11.824375 17.5359375 -10.625 17.0625 C-7.44410709 15.77499573 -6.68040724 14.97890375 -5 12 C-3.88769202 9.03213678 -2.91416719 6.03425707 -2 3 C-1.34 3 -0.68 3 0 3 C0 2.01 0 1.02 0 0 Z " fill="#846031" transform="translate(152,101)"/>
<path d="M0 0 C0 5.94 0 11.88 0 18 C-0.99 18 -1.98 18 -3 18 C-3.33 13.38 -3.66 8.76 -4 4 C-6.97 4 -9.94 4 -13 4 C-13 5.32 -13 6.64 -13 8 C-10.36 8 -7.72 8 -5 8 C-5 8.99 -5 9.98 -5 11 C-7.64 11 -10.28 11 -13 11 C-13 13.31 -13 15.62 -13 18 C-13.99 18 -14.98 18 -16 18 C-16 12.39 -16 6.78 -16 1 C-3.375 0 -3.375 0 0 0 Z " fill="#8F622B" transform="translate(64,150)"/>
<path d="M0 0 C1.65 0 3.3 0 5 0 C5.81832722 1.89332534 6.62942268 3.78977733 7.4375 5.6875 C8.11619141 7.27111328 8.11619141 7.27111328 8.80859375 8.88671875 C9.85447455 11.61972529 10.53520748 14.12042337 11 17 C10.01 17 9.02 17 8 17 C7.67 15.68 7.34 14.36 7 13 C4.36 13.33 1.72 13.66 -1 14 C-1.33 14.99 -1.66 15.98 -2 17 C-3.32 17 -4.64 17 -6 17 C-4.33846988 11.14340094 -2.52958084 5.5409866 0 0 Z " fill="#DDD187" transform="translate(133,151)"/>
<path d="M0 0 C0.495 0.99 0.495 0.99 1 2 C-3.4677612 1.3507651 -7.25615745 -0.36834495 -11.3125 -2.25 C-31.03771594 -11.10161372 -49.48783555 -13.37654253 -71 -13 C-71 -13.66 -71 -14.32 -71 -15 C-47.50350986 -20.7456626 -20.14730393 -11.90196602 0 0 Z " fill="#C3B06F" transform="translate(192,17)"/>
<path d="M0 0 C0.66 1.65 1.32 3.3 2 5 C-0.97 4.505 -0.97 4.505 -4 4 C-6.9445679 8.99296295 -7.63495936 13.33557626 -8 19 C-5.36 19.66 -2.72 20.32 0 21 C0 21.99 0 22.98 0 24 C-1.60149886 24.67305018 -3.20631029 25.33822227 -4.8125 26 C-5.70582031 26.37125 -6.59914062 26.7425 -7.51953125 27.125 C-10 28 -10 28 -13 28 C-12.84273437 27.3296875 -12.68546875 26.659375 -12.5234375 25.96875 C-11.68504223 21.21367234 -11.65967653 16.41254034 -11.4765625 11.59375 C-10.8876879 7.15305628 -9.27274861 4.67771407 -6.625 1.1875 C-4.38401604 -0.45014212 -2.70391348 -0.21923623 0 0 Z " fill="#B39354" transform="translate(145,80)"/>
<path d="M0 0 C7.24579719 -0.67090715 11.75838097 1.41874318 18 5 C17.01 5.495 17.01 5.495 16 6 C15.34 5.690625 14.68 5.38125 14 5.0625 C9.68044339 3.53265704 5.53818885 3.84138369 1 4 C0.67 4.99 0.34 5.98 0 7 C0.99 6.67 1.98 6.34 3 6 C4.56118428 5.93259135 6.1250252 5.91485544 7.6875 5.9375 C8.89986328 5.95103516 8.89986328 5.95103516 10.13671875 5.96484375 C11.05904297 5.98224609 11.05904297 5.98224609 12 6 C12 6.33 12 6.66 12 7 C8.37 7.33 4.74 7.66 1 8 C2.175625 9.670625 2.175625 9.670625 3.375 11.375 C3.81585938 12.00148438 4.25671875 12.62796875 4.7109375 13.2734375 C6.02808866 15.12380509 6.02808866 15.12380509 8 17 C7.1875 19.4375 7.1875 19.4375 6 22 C5.01 22.33 4.02 22.66 3 23 C2.34 20.69 1.68 18.38 1 16 C-1.3015411 15.22197813 -1.3015411 15.22197813 -4 15 C-6.30504044 16.33153266 -6.30504044 16.33153266 -8 18 C-7.44225728 14.76509224 -6.62788492 13.02144994 -4 11 C-3.01 11 -2.02 11 -1 11 C-1.020625 9.741875 -1.04125 8.48375 -1.0625 7.1875 C-1.10886083 4.35948913 -0.91692961 2.75078884 0 0 Z " fill="#A88A4F" transform="translate(118,76)"/>
<path d="M0 0 C1.62543015 3.2508603 1.04307699 6.62575093 0 10 C-1.63631892 11.04892238 -3.30485863 12.04906703 -5 13 C-6.26258366 16.37719196 -6.26258366 16.37719196 -7 20 C-7.64199649 21.67632417 -8.29894157 23.34750513 -9 25 C-9.99 25 -10.98 25 -12 25 C-12.33 25.99 -12.66 26.98 -13 28 C-15.3756951 26.21822867 -15.95924634 25.19924012 -16.5625 22.25 C-15.76097403 17.61896107 -13.47599846 15.07463045 -10 12 C-8.77218494 11.29330727 -7.52186833 10.62393541 -6.25 10 C-2.66359308 8.25216701 -2.66359308 8.25216701 -1.625 4.3125 C-1.41875 3.219375 -1.2125 2.12625 -1 1 C-0.67 0.67 -0.34 0.34 0 0 Z " fill="#866333" transform="translate(117,77)"/>
<path d="M0 0 C2.77971464 2.77971464 4 4.01144966 4 8 C-0.455 8.495 -0.455 8.495 -5 9 C-1.29847322 9.92538169 -0.36541838 10.08174162 3 9 C2.34 10.32 1.68 11.64 1 13 C-5.32835821 13.35820896 -5.32835821 13.35820896 -7.875 12 C-9.67243534 8.8045594 -9.70202714 5.63526893 -10 2 C-6.54512804 0.42062996 -3.79976177 -0.68200852 0 0 Z " fill="#9E7B42" transform="translate(190,155)"/>
<path d="M0 0 C4.875 1.875 4.875 1.875 6 3 C6.04063832 4.66617115 6.042721 6.33388095 6 8 C4.35 8.33 2.7 8.66 1 9 C1.66 10.65 2.32 12.3 3 14 C1.125 15.0625 1.125 15.0625 -1 16 C-1.66 15.67 -2.32 15.34 -3 15 C-3 14.34 -3 13.68 -3 13 C-5.31 12.67 -7.62 12.34 -10 12 C-10 10.68 -10 9.36 -10 8 C-7.03 7.01 -4.06 6.02 -1 5 C-0.67 3.35 -0.34 1.7 0 0 Z " fill="#DDCD82" transform="translate(125,93)"/>
<path d="M0 0 C0.33 0.66 0.66 1.32 1 2 C-7.48684773 13.56506914 -16.23646433 21.67470362 -28 30 C-28 27 -28 27 -25.8984375 24.67578125 C-23.37035563 22.34190513 -20.84221429 20.0089229 -18.29248047 17.69873047 C-13.33549785 13.20623817 -8.60207104 8.72378672 -4.3671875 3.5234375 C-3 2 -3 2 0 0 Z " fill="#A98649" transform="translate(222,194)"/>
<path d="M0 0 C2.39269355 3.58904033 3.13187655 7.10996411 4.0625 11.25 C4.23587891 11.98863281 4.40925781 12.72726563 4.58789062 13.48828125 C6.57314535 22.11387073 7.18222289 30.34834549 7.1875 39.1875 C7.19974609 40.24775391 7.21199219 41.30800781 7.22460938 42.40039062 C7.23811305 49.78690116 6.43525753 56.75703184 5 64 C3.21298305 60.67341262 2.86148903 59.0157471 3.375 55.25 C5.03529963 38.44202849 4.50548274 22.3111537 0.3671875 5.90917969 C0 4 0 4 0 0 Z " fill="#664B2B" transform="translate(239,87)"/>
<path d="M0 0 C-0.42594588 1.44096586 -0.86626633 2.87768712 -1.3125 4.3125 C-1.55613281 5.11300781 -1.79976562 5.91351563 -2.05078125 6.73828125 C-3.05807472 9.13837557 -3.94877201 10.41261754 -6 12 C-8.5625 11.9375 -8.5625 11.9375 -11 11 C-12.83620244 8.66301508 -13.00816451 7.34290941 -12.9375 4.375 C-12 2 -12 2 -9.875 0.6875 C-6.50485983 -0.11840308 -3.45313937 -0.13541723 0 0 Z " fill="#272624" transform="translate(149,104)"/>
<path d="M0 0 C2.4375 0.875 2.4375 0.875 4.4375 3.875 C4.5625 6.5625 4.5625 6.5625 4.4375 8.875 C-0.18447306 11.09354707 -3.33074163 12.25781159 -8.5625 11.875 C-8.13655412 10.43403414 -7.69623367 8.99731288 -7.25 7.5625 C-7.00636719 6.76199219 -6.76273437 5.96148437 -6.51171875 5.13671875 C-5.05542003 1.66677242 -3.90211177 -0.19034692 0 0 Z " fill="#242321" transform="translate(116.5625,90.125)"/>
<path d="M0 0 C2.912575 0.08566397 4.56798024 0.57910955 6.66796875 2.625 C8.16091772 4.38391375 9.60436262 6.16313019 11 8 C9 10 9 10 6.1796875 10.1953125 C5.08914062 10.17210938 3.99859375 10.14890625 2.875 10.125 C1.77929688 10.10695313 0.68359375 10.08890625 -0.4453125 10.0703125 C-1.28835937 10.04710938 -2.13140625 10.02390625 -3 10 C-3.62109375 7.67578125 -3.62109375 7.67578125 -4 5 C-2.0625 2.1875 -2.0625 2.1875 0 0 Z " fill="#242321" transform="translate(127,112)"/>
<path d="M0 0 C5.89117043 4.34086242 5.89117043 4.34086242 7 8 C6.625 10.75 6.625 10.75 6 13 C4.52093108 13.02689216 3.04172517 13.04634621 1.5625 13.0625 C0.32693359 13.07990234 0.32693359 13.07990234 -0.93359375 13.09765625 C-3 13 -3 13 -4 12 C-3.984375 10.0390625 -3.984375 10.0390625 -3.75 7.625 C-3.64945313 6.43777344 -3.64945313 6.43777344 -3.546875 5.2265625 C-2.91370704 2.64866439 -2.01158996 1.67632496 0 0 Z " fill="#282624" transform="translate(140,87)"/>
<path d="M0 0 C1.47906892 -0.02689216 2.95827483 -0.04634621 4.4375 -0.0625 C5.26121094 -0.07410156 6.08492188 -0.08570312 6.93359375 -0.09765625 C9 0 9 0 10 1 C9.94921875 2.92578125 9.94921875 2.92578125 9.6875 5.3125 C9.56955078 6.48232422 9.56955078 6.48232422 9.44921875 7.67578125 C8.98413721 10.08207271 8.19341444 11.87133832 7 14 C1.33615222 10.26427061 1.33615222 10.26427061 0.37890625 6.6640625 C0.15007416 4.43206945 0.00977395 2.24312155 0 0 Z " fill="#222120" transform="translate(111,106)"/>
<path d="M0 0 C1.875 1.5625 1.875 1.5625 3 4 C2.94172082 6.77090991 2.50311507 9.255736 2 12 C0.68 12 -0.64 12 -2 12 C-2.33 9.03 -2.66 6.06 -3 3 C-3.99 2.67 -4.98 2.34 -6 2 C-6.33 5.3 -6.66 8.6 -7 12 C-7.99 12 -8.98 12 -10 12 C-10 8.04 -10 4.08 -10 0 C-3.68932039 -1.26213592 -3.68932039 -1.26213592 0 0 Z " fill="#AA945B" transform="translate(94,156)"/>
<path d="M0 0 C0.99 0 1.98 0 3 0 C3.33 2.97 3.66 5.94 4 9 C4.66 8.01 5.32 7.02 6 6 C7.32 6.33 8.64 6.66 10 7 C9.01 8.485 9.01 8.485 8 10 C8.3830153 12.96836854 9.59583294 15.37888816 11 18 C7.64404172 17.40072174 5.62198774 16.15377564 3 14 C3 15.32 3 16.64 3 18 C2.01 18 1.02 18 0 18 C0 12.06 0 6.12 0 0 Z " fill="#C6AF6B" transform="translate(153,150)"/>
<path d="M0 0 C3.375 -0.125 3.375 -0.125 7 0 C9 2 9 2 9.3125 4.9375 C9 8 9 8 7.875 9.875 C5.21965017 11.4682099 3.03210482 11.20214032 0 11 C0 7.37 0 3.74 0 0 Z " fill="#272623" transform="translate(168,154)"/>
<path d="M0 0 C0.66 0.33 1.32 0.66 2 1 C1.82984375 1.55945313 1.6596875 2.11890625 1.484375 2.6953125 C0.64837606 5.46122389 -0.17545785 8.23065167 -1 11 C-1.33644531 12.10859375 -1.67289063 13.2171875 -2.01953125 14.359375 C-4.24471595 21.85999758 -5.92125325 29.25005626 -7 37 C-7.33 37 -7.66 37 -8 37 C-10.56594371 23.58595765 -5.7815112 11.99128249 0 0 Z " fill="#664A26" transform="translate(21,72)"/>
<path d="M0 0 C1.875 0.1875 1.875 0.1875 4 1 C5.25 3.5625 5.25 3.5625 6 6 C6.66 5.01 7.32 4.02 8 3 C8.66 2.01 9.32 1.02 10 0 C10.99 0.33 11.98 0.66 13 1 C12.10200383 3.48744939 11.18316241 5.9632737 10.25 8.4375 C9.99734375 9.14455078 9.7446875 9.85160156 9.484375 10.58007812 C8.703125 12.62109375 8.703125 12.62109375 7 16 C4.796875 16.97265625 4.796875 16.97265625 3 17 C3.2475 16.195625 3.495 15.39125 3.75 14.5625 C4.05705794 10.18692442 2.84095919 7.80164068 0.91015625 3.953125 C0 2 0 2 0 0 Z " fill="#A58145" transform="translate(65,156)"/>
<path d="M0 0 C12.27943612 7.08243068 22.41950701 16.60759286 31.8125 27.1875 C32.41707031 27.86167969 33.02164063 28.53585938 33.64453125 29.23046875 C35 31 35 31 35 33 C31.23201253 31.74400418 30.392962 30.1988638 28 27.0625 C19.45884789 16.43075994 9.5537006 8.98282051 -2 2 C-1.34 1.34 -0.68 0.68 0 0 Z " fill="#A1854D" transform="translate(193,18)"/>
<path d="M0 0 C15.75515054 1.38600068 31.74336002 7.3672396 45 16 C45.495 16.99 45.495 16.99 46 18 C42.62149419 16.68111805 39.34032452 15.23802716 36.0625 13.6875 C24.62064322 8.49501078 13.338337 5.12551184 1 3 C0.67 2.01 0.34 1.02 0 0 Z " fill="#B7A66A" transform="translate(143,5)"/>
<path d="M0 0 C5.42857143 -0.36190476 5.42857143 -0.36190476 7.875 1.1875 C9.40659584 3.65507108 9.42822025 5.14519831 9 8 C7.875 9.8125 7.875 9.8125 6 11 C2.8125 11.1875 2.8125 11.1875 0 11 C0 7.37 0 3.74 0 0 Z " fill="#21201F" transform="translate(115,154)"/>
<path d="M0 0 C0.66 0.33 1.32 0.66 2 1 C0.52161941 5.37639817 -2.71919516 6.96413812 -6.5625 9.0625 C-7.18785645 9.41248047 -7.81321289 9.76246094 -8.45751953 10.12304688 C-13.1694312 12.697809 -17.81196651 14.56881835 -23 16 C-21.63175231 12.67118013 -20.43593457 11.34542701 -17.2265625 9.74609375 C-16.4840625 9.36646484 -15.7415625 8.98683594 -14.9765625 8.59570312 C-14.20054687 8.21349609 -13.42453125 7.83128906 -12.625 7.4375 C-6.01149112 4.20627492 -6.01149112 4.20627492 0 0 Z " fill="#B9A161" transform="translate(193,220)"/>
<path d="M0 0 C1.875 0.125 1.875 0.125 4 1 C5.25 4.0625 5.25 4.0625 6 7 C6.99 4.69 7.98 2.38 9 0 C9.99 0 10.98 0 12 0 C11.45660208 4.56454251 10.20536179 7.9728176 8 12 C6.68 12 5.36 12 4 12 C3.32645501 10.56570999 2.66140299 9.12742943 2 7.6875 C1.62875 6.88699219 1.2575 6.08648437 0.875 5.26171875 C0 3 0 3 0 0 Z " fill="#8E622D" transform="translate(194,156)"/>
<path d="M0 0 C0.99 0 1.98 0 3 0 C3.08097324 2.27024968 3.13917704 4.54132075 3.1875 6.8125 C3.22230469 8.07707031 3.25710937 9.34164062 3.29296875 10.64453125 C3 14 3 14 1.7109375 15.92578125 C-1.16993233 17.73454656 -3.71416361 17.35845488 -7 17 C-7.66 16.01 -8.32 15.02 -9 14 C-6.69 14 -4.38 14 -2 14 C-1.34 12.68 -0.68 11.36 0 10 C-0.66 10 -1.32 10 -2 10 C-1.85950482 8.52031676 -1.71245174 7.04125484 -1.5625 5.5625 C-1.48128906 4.73878906 -1.40007812 3.91507813 -1.31640625 3.06640625 C-1 1 -1 1 0 0 Z " fill="#D5C279" transform="translate(107,156)"/>
<path d="M0 0 C0.10794277 2.26979665 0.18556176 4.54105196 0.25 6.8125 C0.29640625 8.07707031 0.3428125 9.34164062 0.390625 10.64453125 C0 14 0 14 -1.875 15.96875 C-4 17 -4 17 -6.25 16.6875 C-6.8275 16.460625 -7.405 16.23375 -8 16 C-8 14.68 -8 13.36 -8 12 C-6.68 11.67 -5.36 11.34 -4 11 C-4 9.68 -4 8.36 -4 7 C-4.66 6.34 -5.32 5.68 -6 5 C-1.125 0 -1.125 0 0 0 Z " fill="#A17B40" transform="translate(134,89)"/>
<path d="M0 0 C6.97669157 -0.39325819 12.51656189 0.36903961 19 3 C18.01 4.98 17.02 6.96 16 9 C15.34 8.01 14.68 7.02 14 6 C11.90587504 5.45577467 11.90587504 5.45577467 9.5625 5.375 C6.74047304 5.17973619 4.71858707 4.90619569 2 4 C1.01 4 0.02 4 -1 4 C-0.67 2.68 -0.34 1.36 0 0 Z " fill="#836C40" transform="translate(119,79)"/>
<path d="M0 0 C13.34709856 -0.62673332 26.4952327 1.22545249 39 6 C38.67 6.99 38.34 7.98 38 9 C37.10023438 8.67386719 36.20046875 8.34773437 35.2734375 8.01171875 C23.708374 4.01865441 12.13081973 2.34693698 0 1 C0 0.67 0 0.34 0 0 Z " fill="#4B4839" transform="translate(130,3)"/>
<path d="M0 0 C0.33 0 0.66 0 1 0 C1.33 3.63 1.66 7.26 2 11 C1.67 11 1.34 11 1 11 C0.67 15.62 0.34 20.24 0 25 C-0.33 25 -0.66 25 -1 25 C-1.33 27.97 -1.66 30.94 -2 34 C-2.33 34 -2.66 34 -3 34 C-3.4112371 11.08495515 -3.4112371 11.08495515 -1 1 C-0.67 0.67 -0.34 0.34 0 0 Z " fill="#4B371F" transform="translate(12,100)"/>
<path d="M0 0 C2.25 -0.3125 2.25 -0.3125 5 0 C7.77971464 2.77971464 9 4.01144966 9 8 C5.7 8 2.4 8 -1 8 C-1.125 2.25 -1.125 2.25 0 0 Z " fill="#7C6036" transform="translate(185,155)"/>
<path d="M0 0 C1.22493164 -0.01836914 1.22493164 -0.01836914 2.47460938 -0.03710938 C7.88181365 -0.05003496 12.49377644 0.67540327 17.6875 2.1875 C17.6875 2.5175 17.6875 2.8475 17.6875 3.1875 C7.1275 3.1875 -3.4325 3.1875 -14.3125 3.1875 C-14.3125 2.5275 -14.3125 1.8675 -14.3125 1.1875 C-9.54787838 -0.02548921 -4.88229127 0.00379945 0 0 Z " fill="#DDD289" transform="translate(135.3125,0.8125)"/>
<path d="M0 0 C0.80050781 0.12761719 1.60101563 0.25523438 2.42578125 0.38671875 C3.23402344 0.50660156 4.04226562 0.62648438 4.875 0.75 C5.48988281 0.85699219 6.10476562 0.96398437 6.73828125 1.07421875 C6.73828125 2.06421875 6.73828125 3.05421875 6.73828125 4.07421875 C5.13678239 4.74726893 3.53197096 5.41244102 1.92578125 6.07421875 C1.03246094 6.44546875 0.13914063 6.81671875 -0.78125 7.19921875 C-3.26171875 8.07421875 -3.26171875 8.07421875 -6.26171875 8.07421875 C-5.90597917 5.44174586 -5.60948581 3.54370429 -4.01171875 1.38671875 C-2.26171875 0.07421875 -2.26171875 0.07421875 0 0 Z " fill="#E2D387" transform="translate(138.26171875,99.92578125)"/>
<path d="M0 0 C0.99 0 1.98 0 3 0 C3 5.94 3 11.88 3 18 C2.01 18 1.02 18 0 18 C0 12.06 0 6.12 0 0 Z " fill="#A2783B" transform="translate(61,150)"/>
<path d="M0 0 C3.20943968 1.34436956 4.6362089 2.50105792 6.2890625 5.5546875 C6.67320312 6.25207031 7.05734375 6.94945312 7.453125 7.66796875 C7.83984375 8.39628906 8.2265625 9.12460937 8.625 9.875 C9.01945313 10.59558594 9.41390625 11.31617188 9.8203125 12.05859375 C10.89577399 14.03148425 11.95808294 16.00920337 13 18 C13.3923584 18.65629395 13.7847168 19.31258789 14.18896484 19.98876953 C15.17099375 22.42403567 14.86784475 23.57003471 14 26 C13.71801758 25.46109131 13.43603516 24.92218262 13.14550781 24.36694336 C11.84835042 21.88975519 10.54918916 19.41362315 9.25 16.9375 C8.8065625 16.08994141 8.363125 15.24238281 7.90625 14.36914062 C5.36134568 9.52259489 2.74908489 4.73382141 0 0 Z " fill="#846133" transform="translate(227,51)"/>
<path d="M0 0 C2.31 0 4.62 0 7 0 C7 0.99 7 1.98 7 3 C6.01 3.66 5.02 4.32 4 5 C3.42251197 6.96361864 3.42251197 6.96361864 3.3125 9.125 C3.209375 10.40375 3.10625 11.6825 3 13 C2.01 13 1.02 13 0 13 C0 8.71 0 4.42 0 0 Z " fill="#CCBB76" transform="translate(145,155)"/>
<path d="M0 0 C0.33 0 0.66 0 1 0 C1 5.61 1 11.22 1 17 C-0.65 15.35 -2.3 13.7 -4 12 C-3.80952381 7.80952381 -3.80952381 7.80952381 -2 6 C-2.66 5.34 -3.32 4.68 -4 4 C-2.68 4 -1.36 4 0 4 C0 2.68 0 1.36 0 0 Z " fill="#3C382C" transform="translate(164,151)"/>
<path d="M0 0 C4.875 1.875 4.875 1.875 6 3 C6.04063832 4.66617115 6.042721 6.33388095 6 8 C4.824375 8.185625 4.824375 8.185625 3.625 8.375 C0.85942178 8.79117993 0.85942178 8.79117993 -1 11 C-1.02688151 9.35425434 -1.04634123 7.70838587 -1.0625 6.0625 C-1.07410156 5.14597656 -1.08570312 4.22945313 -1.09765625 3.28515625 C-1 1 -1 1 0 0 Z " fill="#CAB26C" transform="translate(125,93)"/>
<path d="M0 0 C2.3125 0.1875 2.3125 0.1875 5 1 C8.94208636 6.20918554 9.12288934 10.60975425 9 17 C8.67 17 8.34 17 8 17 C7.62875 15.1746875 7.62875 15.1746875 7.25 13.3125 C6.28115233 9.40942794 4.8359991 6.92462408 2 4 C1.34 3.67 0.68 3.34 0 3 C0 2.01 0 1.02 0 0 Z " fill="#332F27" transform="translate(141,83)"/>
<path d="M0 0 C2.12046792 3.53411321 2.53199289 6.94393835 3 11 C-0.465 9.02 -0.465 9.02 -4 7 C-3.6875 4.625 -3.6875 4.625 -3 2 C-2.01 1.34 -1.02 0.68 0 0 Z " fill="#C8AF6A" transform="translate(131,104)"/>
<path d="M0 0 C4.50284396 0.6273046 8.24223673 2.39620149 12.25 4.4375 C12.88679687 4.75009766 13.52359375 5.06269531 14.1796875 5.38476562 C18.87326759 7.74653518 18.87326759 7.74653518 20 10 C15.18080529 9.32512263 11.08116134 7.42034091 6.6875 5.4375 C5.94693359 5.10814453 5.20636719 4.77878906 4.44335938 4.43945312 C2.62688438 3.63082877 0.81316069 2.81602884 -1 2 C-0.67 1.34 -0.34 0.68 0 0 Z " fill="#B8A162" transform="translate(173,9)"/>
<path d="M0 0 C0.33 0 0.66 0 1 0 C0.63498398 6.84719713 -0.00337561 12.77624166 -3 19 C-3.99 19.33 -4.98 19.66 -6 20 C-5.80664062 19.38253906 -5.61328125 18.76507813 -5.4140625 18.12890625 C-3.84437839 13.02354753 -2.47913737 7.9528874 -1.4296875 2.71484375 C-1 1 -1 1 0 0 Z " fill="#8B632F" transform="translate(242,147)"/>
<path d="M0 0 C0.33 0 0.66 0 1 0 C1.25 2.8125 1.25 2.8125 1 6 C-0.625 7.9375 -0.625 7.9375 -3 9 C-6.25 8.6875 -6.25 8.6875 -9 8 C-9.33 6.35 -9.66 4.7 -10 3 C-8.515 3.99 -8.515 3.99 -7 5 C-5.68 5 -4.36 5 -3 5 C-1.28288757 2.55503957 -1.28288757 2.55503957 0 0 Z " fill="#CBB671" transform="translate(119,117)"/>
<path d="M0 0 C6.69868593 4.13323175 11.45195513 9.59561029 16 16 C16 16.66 16 17.32 16 18 C12.13526281 16.71175427 11.06377127 14.87208652 8.5625 11.6875 C6.36688488 8.90490148 4.25224445 6.24620783 1.71484375 3.76953125 C0 2 0 2 0 0 Z " fill="#987640" transform="translate(212,33)"/>
<path d="M0 0 C1.32 0.33 2.64 0.66 4 1 C3.67 4.63 3.34 8.26 3 12 C2.01 12 1.02 12 0 12 C0 8.04 0 4.08 0 0 Z " fill="#B99C5A" transform="translate(84,156)"/>
<path d="M0 0 C4.99450259 0.6853655 9.5967594 2.02015651 14.375 3.5625 C15.11105469 3.79646484 15.84710938 4.03042969 16.60546875 4.27148438 C18.40481238 4.8440028 20.20257277 5.42149314 22 6 C22 6.33 22 6.66 22 7 C14.14868332 6.65259661 7.35074375 4.71548094 0 2 C0 1.34 0 0.68 0 0 Z " fill="#25231E" transform="translate(85,232)"/>
<path d="M0 0 C2.0625 0.4375 2.0625 0.4375 4 1 C4.625 2.875 4.625 2.875 5 5 C4.34 5.66 3.68 6.32 3 7 C0.375 6.625 0.375 6.625 -2 6 C-1.125 1.125 -1.125 1.125 0 0 Z " fill="#2E2C25" transform="translate(102,158)"/>
<path d="M0 0 C0.33 0.66 0.66 1.32 1 2 C1.99 2.33 2.98 2.66 4 3 C7.11355299 6.18371756 8.90689703 8.97586737 9.3125 13.4375 C9.1578125 14.7059375 9.1578125 14.7059375 9 16 C8.01 15.67 7.02 15.34 6 15 C5.938125 14.113125 5.87625 13.22625 5.8125 12.3125 C4.81004136 8.22555325 3.15975486 6.69735171 0 4 C-0.66 3.67 -1.32 3.34 -2 3 C-1.34 2.01 -0.68 1.02 0 0 Z " fill="#886839" transform="translate(140,84)"/>
<path d="M0 0 C1.70884005 1.62339805 3.37446717 3.29319053 5 5 C5 5.66 5 6.32 5 7 C5.99 7.33 6.98 7.66 8 8 C8 8.99 8 9.98 8 11 C5.6875 10.8125 5.6875 10.8125 3 10 C0.31551796 6.66753954 -0.36325349 4.23795734 0 0 Z " fill="#2E2B24" transform="translate(108,112)"/>
<path d="M0 0 C0.99 0.33 1.98 0.66 3 1 C3.4375 3.625 3.4375 3.625 3 7 C0.9050512 9.33122122 -1.46073827 11.17328621 -4 13 C-3.79503906 12.39671875 -3.59007812 11.7934375 -3.37890625 11.171875 C-2.97478516 9.97304687 -2.97478516 9.97304687 -2.5625 8.75 C-2.29566406 7.96109375 -2.02882812 7.1721875 -1.75390625 6.359375 C-1.08045292 4.25178012 -0.50849405 2.15246027 0 0 Z " fill="#2C2925" transform="translate(150,104)"/>
<path d="M0 0 C0.66 0.33 1.32 0.66 2 1 C-0.96852125 6.22459741 -3.62704618 8.31352309 -9 11 C-7.59928507 5.70841026 -4.14512755 3.22521956 0 0 Z " fill="#AE8F52" transform="translate(202,213)"/>
<path d="M0 0 C0.66 0 1.32 0 2 0 C2 0.66 2 1.32 2 2 C3.65 2 5.3 2 7 2 C7 2.99 7 3.98 7 5 C7.66 5.33 8.32 5.66 9 6 C7.02 7.32 5.04 8.64 3 10 C0.70366176 6.55549263 0.45983515 4.06187717 0 0 Z " fill="#A9874B" transform="translate(120,106)"/>
<path d="M0 0 C0.99 0 1.98 0 3 0 C3 3.96 3 7.92 3 12 C2.01 12 1.02 12 0 12 C0 8.04 0 4.08 0 0 Z " fill="#B39353" transform="translate(79,156)"/>
<path d="M0 0 C2.97 0 5.94 0 9 0 C9 1.32 9 2.64 9 4 C6.03 4 3.06 4 0 4 C0 2.68 0 1.36 0 0 Z " fill="#1A1918" transform="translate(51,154)"/>
<path d="M0 0 C0.33 1.32 0.66 2.64 1 4 C-0.66561399 5.66561399 -2.65962705 5.17115945 -4.9375 5.1875 C-5.83339844 5.20167969 -6.72929687 5.21585937 -7.65234375 5.23046875 C-10 5 -10 5 -12 3 C-8.04 2.01 -4.08 1.02 0 0 Z " fill="#2B2924" transform="translate(138,122)"/>
<path d="M0 0 C0.66 0.33 1.32 0.66 2 1 C-1.07517084 11.55808656 -1.07517084 11.55808656 -3 16 C-5 13 -5 13 -4.609375 10.87890625 C-4.32578125 10.11449219 -4.0421875 9.35007812 -3.75 8.5625 C-3.47671875 7.80066406 -3.2034375 7.03882812 -2.921875 6.25390625 C-2.04421126 4.10809278 -1.06816156 2.05667949 0 0 Z " fill="#825E2F" transform="translate(21,72)"/>
<path d="M0 0 C3.45826342 -0.05789006 6.91640293 -0.09355821 10.375 -0.125 C11.35984375 -0.14175781 12.3446875 -0.15851563 13.359375 -0.17578125 C14.77089844 -0.18544922 14.77089844 -0.18544922 16.2109375 -0.1953125 C17.51490479 -0.21102295 17.51490479 -0.21102295 18.84521484 -0.22705078 C21 0 21 0 23 2 C17.555 1.505 17.555 1.505 12 1 C12 1.66 12 2.32 12 3 C6.06 2.01 6.06 2.01 0 1 C0 0.67 0 0.34 0 0 Z " fill="#868058" transform="translate(116,239)"/>
<path d="M0 0 C0.99 0.495 0.99 0.495 2 1 C2.37890625 3.3984375 2.37890625 3.3984375 2.5625 6.375 C2.76686657 9.53642575 2.99377883 11.98133648 4 15 C3.34 15.66 2.68 16.32 2 17 C0.14868517 13.07142246 -0.22004943 10.01224888 -0.125 5.6875 C-0.10695313 4.61886719 -0.08890625 3.55023438 -0.0703125 2.44921875 C-0.04710938 1.64097656 -0.02390625 0.83273438 0 0 Z " fill="#70532D" transform="translate(106,105)"/>
<path d="M0 0 C0 3.01490557 -0.51952735 4.86864114 -1.5 7.6875 C-1.91765625 8.89986328 -1.91765625 8.89986328 -2.34375 10.13671875 C-2.5603125 10.75160156 -2.776875 11.36648437 -3 12 C-3.99 12 -4.98 12 -6 12 C-6.375 9.375 -6.375 9.375 -6 6 C-4.19946381 3.66246179 -2.2392198 1.95931733 0 0 Z " fill="#272521" transform="translate(110,89)"/>
<path d="M0 0 C4.62 0 9.24 0 14 0 C14 0.99 14 1.98 14 3 C8.0819503 4.32854177 5.22270869 3.66464729 0 1 C0 0.67 0 0.34 0 0 Z " fill="#A68E56" transform="translate(125,126)"/>
<path d="M0 0 C1.62463842 -0.05395478 3.24978541 -0.09277195 4.875 -0.125 C5.77992187 -0.14820312 6.68484375 -0.17140625 7.6171875 -0.1953125 C10 0 10 0 12 2 C7.71 2.66 3.42 3.32 -1 4 C-0.67 2.68 -0.34 1.36 0 0 Z " fill="#282623" transform="translate(119,79)"/>
<path d="M0 0 C6.41923331 0.29112169 10.62100206 1.45215029 16 5 C14 6 14 6 12.01171875 5.4765625 C10.86123047 5.05503906 10.86123047 5.05503906 9.6875 4.625 C6.46922991 3.48822395 3.38068371 2.54527157 0 2 C0 1.34 0 0.68 0 0 Z " fill="#B4A165" transform="translate(120,76)"/>
<path d="M0 0 C0.66 0.33 1.32 0.66 2 1 C0.60344703 4.49873271 -0.71260484 5.70891831 -4.125 7.25 C-5.21167969 7.75273437 -5.21167969 7.75273437 -6.3203125 8.265625 C-7.15175781 8.62914062 -7.15175781 8.62914062 -8 9 C-6.64531705 4.12314139 -4.28324091 2.51407619 0 0 Z " fill="#B79C5B" transform="translate(193,220)"/>
<path d="M0 0 C1.2065625 0.0309375 1.2065625 0.0309375 2.4375 0.0625 C3.0975 1.7125 3.7575 3.3625 4.4375 5.0625 C3.509375 4.85625 2.58125 4.65 1.625 4.4375 C-1.71423402 3.69557034 -1.71423402 3.69557034 -4.5625 6.0625 C-3.48963568 0.08511307 -3.48963568 0.08511307 0 0 Z " fill="#D3C27B" transform="translate(142.5625,79.9375)"/>
<path d="M0 0 C1.32 0 2.64 0 4 0 C3.51171875 6.0546875 3.51171875 6.0546875 3 8 C2.01 8.66 1.02 9.32 0 10 C0 6.7 0 3.4 0 0 Z " fill="#886231" transform="translate(139,119)"/>
<path d="M0 0 C0.99 0.495 0.99 0.495 2 1 C3.53668865 1.22467831 5.07968054 1.40796805 6.625 1.5625 C7.44226563 1.64628906 8.25953125 1.73007813 9.1015625 1.81640625 C9.72804687 1.87699219 10.35453125 1.93757813 11 2 C8.0163065 5.42436208 5.4751616 5.57781494 1 6 C0 3 0 3 0 0 Z " fill="#846E42" transform="translate(122,120)"/>
<path d="M0 0 C2.0625 0.4375 2.0625 0.4375 4 1 C3.67 2.65 3.34 4.3 3 6 C1.68 5.67 0.36 5.34 -1 5 C-1 1 -1 1 0 0 Z " fill="#353128" transform="translate(127,100)"/>
<path d="M0 0 C1.37074467 2.74148933 1.04563562 5.10996212 0.65625 8.08984375 C0 10 0 10 -3.0625 12 C-4.031875 12.33 -5.00125 12.66 -6 13 C-5.625 11.0625 -5.625 11.0625 -5 9 C-4.34 8.67 -3.68 8.34 -3 8 C-2.29508733 5.67793475 -1.62787571 3.34406932 -1 1 C-0.67 0.67 -0.34 0.34 0 0 Z " fill="#785B32" transform="translate(117,77)"/>
<path d="M0 0 C3.12493704 3.12493704 3.95911133 5.91645015 4.125 10.3125 C4.08375 11.199375 4.0425 12.08625 4 13 C1.65085508 10.65085508 1.26859643 9.04320554 0.375 5.875 C0.11460937 4.96492188 -0.14578125 4.05484375 -0.4140625 3.1171875 C-0.60742188 2.41851562 -0.80078125 1.71984375 -1 1 C-0.67 0.67 -0.34 0.34 0 0 Z " fill="#6E502C" transform="translate(242,76)"/>
<path d="M0 0 C1.39195915 4.17587745 -0.17676781 6.13474776 -2 10 C-2.66 10 -3.32 10 -4 10 C-3.71872579 8.51882199 -3.42466268 7.04006751 -3.125 5.5625 C-2.96257812 4.73878906 -2.80015625 3.91507813 -2.6328125 3.06640625 C-2.42398438 2.38449219 -2.21515625 1.70257813 -2 1 C-1.34 0.67 -0.68 0.34 0 0 Z " fill="#2E2A26" transform="translate(242,159)"/>
<path d="M0 0 C0.33 1.32 0.66 2.64 1 4 C0.34 4 -0.32 4 -1 4 C-1 3.34 -1 2.68 -1 2 C-1.5775 2.33 -2.155 2.66 -2.75 3 C-5 4 -5 4 -9 4 C-9 3.01 -9 2.02 -9 1 C-4.545 0.505 -4.545 0.505 0 0 Z " fill="#AF8E50" transform="translate(114,101)"/>
<path d="M0 0 C2.97 0.33 5.94 0.66 9 1 C9 1.99 9 2.98 9 4 C7.35 4.33 5.7 4.66 4 5 C4 4.01 4 3.02 4 2 C2.68 2 1.36 2 0 2 C0 1.34 0 0.68 0 0 Z " fill="#DAC87E" transform="translate(136,100)"/>
<path d="M0 0 C0.66 0.33 1.32 0.66 2 1 C-1 4 -4 7 -7 10 C-6.84518205 7.29068581 -6.51827919 5.53415961 -4.59765625 3.5546875 C-3.10228292 2.32320358 -1.5537076 1.1570163 0 0 Z " fill="#967843" transform="translate(110,87)"/>
<path d="M0 0 C1.125 1.6875 1.125 1.6875 2 4 C1.125 6.75 1.125 6.75 0 9 C-0.66 9 -1.32 9 -2 9 C-2.125 5.625 -2.125 5.625 -2 2 C-1.34 1.34 -0.68 0.68 0 0 Z " fill="#C1A562" transform="translate(137,83)"/>
<path d="M0 0 C0.66 0.33 1.32 0.66 2 1 C-0.52788007 3.79872437 -2.20411134 5.45773019 -6 6 C-4.98545548 3.4636387 -4.3146444 2.20648539 -2 0.6875 C-1.34 0.460625 -0.68 0.23375 0 0 Z " fill="#C4AD6A" transform="translate(176,230)"/>
<path d="M0 0 C0.33 0.66 0.66 1.32 1 2 C-1.36620011 4.61527381 -3.942048 6.26440562 -7 8 C-5.50902342 4.2047869 -3.24299151 2.38957269 0 0 Z " fill="#A07C42" transform="translate(222,194)"/>
<path d="M0 0 C0.33 0.99 0.66 1.98 1 3 C-1.36292656 5.52588702 -2.66462511 6.88820837 -6 8 C-4.55746343 4.63408134 -2.66735273 2.48952921 0 0 Z " fill="#97733C" transform="translate(226,188)"/>
<path d="M0 0 C1.39195915 4.17587745 -0.17676781 6.13474776 -2 10 C-2.66 9.67 -3.32 9.34 -4 9 C-2.25 2.25 -2.25 2.25 0 0 Z " fill="#8F6732" transform="translate(237,166)"/>
<path d="M0 0 C0.33 0.99 0.66 1.98 1 3 C0.34 3.66 -0.32 4.32 -1 5 C-4.125 4.625 -4.125 4.625 -7 4 C-4.77810176 1.77810176 -2.91517292 1.07401108 0 0 Z " fill="#3C382B" transform="translate(106,166)"/>
<path d="M0 0 C1.32 0.33 2.64 0.66 4 1 C4 2.98 4 4.96 4 7 C3.34 7 2.68 7 2 7 C0.5393715 4.35261084 0 3.10551666 0 0 Z " fill="#966C34" transform="translate(194,156)"/>
<path d="M0 0 C0 0.66 0 1.32 0 2 C2.31 2 4.62 2 7 2 C7 2.33 7 2.66 7 3 C-3.55808656 3.18451025 -3.55808656 3.18451025 -8 2 C-8 1.67 -8 1.34 -8 1 C-2.25 0 -2.25 0 0 0 Z " fill="#444131" transform="translate(116,238)"/>
<path d="M0 0 C0.33 0 0.66 0 1 0 C1 3.3 1 6.6 1 10 C0.34 10 -0.32 10 -1 10 C-2.25 3.375 -2.25 3.375 0 0 Z " fill="#32271A" transform="translate(12,135)"/>
<path d="M0 0 C0.33 0.99 0.66 1.98 1 3 C-0.32 4.32 -1.64 5.64 -3 7 C-3.99 6.67 -4.98 6.34 -6 6 C-6 5.34 -6 4.68 -6 4 C-4.36368108 2.95107762 -2.69514137 1.95093297 -1 1 C-0.67 0.67 -0.34 0.34 0 0 Z " fill="#C9B672" transform="translate(146,112)"/>
<path d="M0 0 C0 3.3 0 6.6 0 10 C-0.66 9.67 -1.32 9.34 -2 9 C-2.59355614 6.35139573 -2.74209269 3.70802678 -3 1 C-1 0 -1 0 0 0 Z " fill="#B79755" transform="translate(136,107)"/>
<path d="M0 0 C3.55780196 0.60990891 6.6828589 1.5783681 10 3 C7 4 7 4 4 3 C3.67 3.66 3.34 4.32 3 5 C2.34 4.34 1.68 3.68 1 3 C1.33 2.34 1.66 1.68 2 1 C1.34 0.67 0.68 0.34 0 0 Z " fill="#7A6E47" transform="translate(81,229)"/>
<path d="M0 0 C0.66 0.33 1.32 0.66 2 1 C2.625 3.5625 2.625 3.5625 3 6 C1.35 6 -0.3 6 -2 6 C-1.34 4.02 -0.68 2.04 0 0 Z " fill="#313029" transform="translate(135,155)"/>
<path d="M0 0 C0.33 0 0.66 0 1 0 C0.67 3.63 0.34 7.26 0 11 C-2 8 -2 8 -1.6875 4.375 C-1 1 -1 1 0 0 Z " fill="#815B2D" transform="translate(242,147)"/>
<path d="M0 0 C0.33 0.66 0.66 1.32 1 2 C-0.3125 4.625 -0.3125 4.625 -2 7 C-2.66 7 -3.32 7 -4 7 C-3.6875 4.625 -3.6875 4.625 -3 2 C-2.01 1.34 -1.02 0.68 0 0 Z " fill="#C3A662" transform="translate(131,104)"/>
<path d="M0 0 C1.98 0.99 1.98 0.99 4 2 C4 3.65 4 5.3 4 7 C2.68 6.34 1.36 5.68 0 5 C0 3.35 0 1.7 0 0 Z " fill="#DFCE83" transform="translate(127,94)"/>
<path d="M0 0 C0.99 0 1.98 0 3 0 C3 0.66 3 1.32 3 2 C4.65 2 6.3 2 8 2 C8 2.33 8 2.66 8 3 C3.545 3.495 3.545 3.495 -1 4 C-0.67 2.68 -0.34 1.36 0 0 Z " fill="#95733E" transform="translate(110,103)"/>
<path d="M0 0 C0.99 0.33 1.98 0.66 3 1 C-1.75 5.875 -1.75 5.875 -4 7 C-3.43628586 3.73045798 -2.50037734 2.17424117 0 0 Z " fill="#C7B36F" transform="translate(114,87)"/>
<path d="M0 0 C2.97 0 5.94 0 9 0 C7.25 1.5625 7.25 1.5625 5 3 C2.8125 2.8125 2.8125 2.8125 1 2 C0.67 1.34 0.34 0.68 0 0 Z " fill="#2D2924" transform="translate(184,163)"/>
<path d="M0 0 C0 0.66 0 1.32 0 2 C-5.41176471 6 -5.41176471 6 -8 6 C-6.98565881 3.46414701 -6.34981128 2.21863205 -4 0.75 C-2 0 -2 0 0 0 Z " fill="#907C4D" transform="translate(151,114)"/>
<path d="M0 0 C0.33 0 0.66 0 1 0 C1.25 2.8125 1.25 2.8125 1 6 C-1 7.875 -1 7.875 -3 9 C-3 5.30581799 -1.71820705 3.22163822 0 0 Z " fill="#946D37" transform="translate(154,106)"/>
<path d="M0 0 C1.32 0.33 2.64 0.66 4 1 C4 1.99 4 2.98 4 4 C3.01 4.33 2.02 4.66 1 5 C0.67 3.35 0.34 1.7 0 0 Z " fill="#E5D78A" transform="translate(123,104)"/>
<path d="M0 0 C0.66 0.33 1.32 0.66 2 1 C2 2.65 2 4.3 2 6 C0.68 5.67 -0.64 5.34 -2 5 C-2 3.68 -2 2.36 -2 1 C-1.34 0.67 -0.68 0.34 0 0 Z " fill="#C6B06B" transform="translate(117,100)"/>
<path d="M0 0 C2.97 0 5.94 0 9 0 C9.33 0.99 9.66 1.98 10 3 C8.68 3.33 7.36 3.66 6 4 C6 3.01 6 2.02 6 1 C4.02 1 2.04 1 0 1 C0 0.67 0 0.34 0 0 Z " fill="#B89F60" transform="translate(139,100)"/>
<path d="M0 0 C3.37503669 1.1858237 5.64722731 2.27573689 8 5 C4.17902761 4.46930939 1.93828597 3.50298434 -1 1 C-0.67 0.67 -0.34 0.34 0 0 Z " fill="#AD9459" transform="translate(185,14)"/>
</svg>
